<?xml version="1.0" encoding="utf-8"?>
<!-- Generator: Adobe Illustrator 27.8.0, SVG Export Plug-In . SVG Version: 6.00 Build 0)  -->
<svg version="1.1" id="Capa_1" xmlns="http://www.w3.org/2000/svg" xmlns:xlink="http://www.w3.org/1999/xlink" x="0px" y="0px"
	 viewBox="0 0 759.76 759.76" style="enable-background:new 0 0 759.76 759.76;" xml:space="preserve">
<g>
	<path d="M379.88,93.28c-158.29,0-286.61,128.32-286.61,286.6c0,158.29,128.32,286.6,286.61,286.6
		c158.29,0,286.6-128.32,286.6-286.6C666.49,221.59,538.17,93.28,379.88,93.28z M555.69,452.8c-0.86,18.83-3.85,31.68-8.22,42.93
		c-4.52,11.63-10.57,21.49-20.4,31.33c-9.83,9.83-19.7,15.88-31.33,20.4c-11.25,4.37-24.11,7.36-42.93,8.22
		c-18.87,0.86-24.89,1.06-72.92,1.06c-48.04,0-54.06-0.2-72.93-1.06c-18.83-0.86-31.68-3.85-42.93-8.22
		c-11.63-4.52-21.49-10.57-31.33-20.4c-9.83-9.83-15.88-19.7-20.4-31.33c-4.37-11.25-7.36-24.11-8.22-42.93
		c-0.86-18.87-1.06-24.89-1.06-72.92c0-48.04,0.2-54.06,1.06-72.92c0.86-18.83,3.85-31.68,8.22-42.93
		c4.52-11.63,10.57-21.49,20.4-31.33c9.83-9.83,19.7-15.88,31.33-20.4c11.25-4.37,24.11-7.36,42.93-8.22
		c18.87-0.86,24.89-1.06,72.93-1.06c48.03,0,54.06,0.2,72.92,1.06c18.83,0.86,31.68,3.85,42.93,8.22
		c11.63,4.52,21.49,10.57,31.33,20.4c9.83,9.83,15.88,19.7,20.4,31.33c4.37,11.25,7.36,24.11,8.22,42.93
		c0.86,18.87,1.06,24.89,1.06,72.92C556.75,427.92,556.55,433.94,555.69,452.8z"/>
	<path d="M517.76,275.57c-3.21-8.26-7.04-14.15-13.23-20.34c-6.19-6.19-12.08-10.02-20.34-13.23c-6.23-2.42-15.6-5.3-32.84-6.09
		c-18.65-0.85-24.24-1.03-71.47-1.03c-47.23,0-52.82,0.18-71.47,1.03c-17.24,0.79-26.61,3.67-32.84,6.09
		c-8.26,3.21-14.15,7.04-20.34,13.23c-6.19,6.19-10.02,12.08-13.23,20.34c-2.42,6.23-5.3,15.6-6.09,32.84
		c-0.85,18.65-1.03,24.24-1.03,71.47s0.18,52.82,1.03,71.47c0.79,17.24,3.67,26.61,6.09,32.84c3.21,8.26,7.04,14.15,13.23,20.34
		c6.19,6.19,12.08,10.02,20.34,13.23c6.23,2.42,15.6,5.3,32.84,6.09c18.65,0.85,24.24,1.03,71.47,1.03
		c47.23,0,52.82-0.18,71.47-1.03c17.24-0.79,26.61-3.67,32.84-6.09c8.26-3.21,14.15-7.04,20.34-13.23
		c6.19-6.19,10.02-12.08,13.23-20.34c2.42-6.23,5.3-15.6,6.09-32.84c0.85-18.65,1.03-24.24,1.03-71.47s-0.18-52.82-1.03-71.47
		C523.06,291.16,520.18,281.8,517.76,275.57z M379.88,470.71c-50.16,0-90.83-40.66-90.83-90.83c0-50.16,40.66-90.83,90.83-90.83
		c50.16,0,90.82,40.66,90.82,90.83C470.71,430.04,430.04,470.71,379.88,470.71z M474.29,306.69c-11.72,0-21.22-9.5-21.22-21.22
		s9.5-21.22,21.22-21.22c11.72,0,21.23,9.5,21.23,21.22S486.02,306.69,474.29,306.69z"/>
	<path d="M379.88,320.92c-32.56,0-58.96,26.4-58.96,58.96c0,32.56,26.4,58.96,58.96,58.96s58.96-26.4,58.96-58.96
		C438.84,347.32,412.44,320.92,379.88,320.92z"/>
</g>
</svg>
