<?xml version="1.0" encoding="utf-8"?>
<!-- Generator: Adobe Illustrator 27.8.0, SVG Export Plug-In . SVG Version: 6.00 Build 0)  -->
<svg version="1.1" id="Capa_1" xmlns="http://www.w3.org/2000/svg" xmlns:xlink="http://www.w3.org/1999/xlink" x="0px" y="0px"
	 viewBox="0 0 1133.86 393.86" style="enable-background:new 0 0 1133.86 393.86;" xml:space="preserve">
<g>
	<path d="M210.24,139.56h-33.51c-19.03,0-34.46,15.43-34.46,34.46v177.22c0,2.97-2.41,5.38-5.38,5.38H96.15
		c-2.97,0-5.38-2.41-5.38-5.38V174.02c0-19.03-15.43-34.46-34.46-34.46H23.86c-2.97,0-5.38-2.41-5.38-5.38v-28.92
		c0-2.97,2.41-5.38,5.38-5.38h186.38c2.97,0,5.38,2.41,5.38,5.38v28.92C215.62,137.15,213.21,139.56,210.24,139.56z"/>
	<path d="M890.63,139.56h-33.51c-19.03,0-34.46,15.43-34.46,34.46v177.22c0,2.97-2.41,5.38-5.38,5.38h-40.73
		c-2.97,0-5.38-2.41-5.38-5.38V174.02c0-19.03-15.43-34.46-34.46-34.46h-32.45c-2.97,0-5.38-2.41-5.38-5.38v-28.92
		c0-2.97,2.41-5.38,5.38-5.38h186.38c2.97,0,5.38,2.41,5.38,5.38v28.92C896.01,137.15,893.6,139.56,890.63,139.56z"/>
	<path d="M554.38,274c-2.82,0-5.14,2.19-5.35,5c-0.98,13-4.64,22.94-11.05,29.74c-7.58,8.05-19.07,12.08-34.47,12.08
		c-16.22,0-28.89-6.23-38-18.69c-9.11-12.46-13.67-28.57-13.67-48.32V202.5c0-19.63,4.32-35.65,12.96-48.05
		c8.64-12.4,20.66-18.6,36.06-18.6c16.57,0,28.83,4.03,36.76,12.08c6.64,6.74,10.47,16.46,11.54,29.09c0.24,2.77,2.56,4.9,5.34,4.9
		h39.94c3.08,0,5.52-2.59,5.39-5.67c-1.07-24.2-9.59-43.25-25.62-57.15c-17.63-15.28-42.08-22.92-73.35-22.92
		c-29.98,0-54.19,9.96-72.65,29.89s-27.68,45.52-27.68,76.79v50.96c0,31.39,9.46,56.98,28.39,76.79
		c18.92,19.81,43.79,29.71,74.59,29.71c30.21,0,53.9-7.76,71.06-23.28c15.68-14.17,23.98-33.31,24.94-57.39
		c0.12-3.07-2.32-5.65-5.39-5.65L554.38,274L554.38,274z"/>
	<path d="M669.96,356.62h-40.73c-2.97,0-5.38-2.41-5.38-5.38V105.26c0-2.97,2.41-5.38,5.38-5.38h40.73c2.97,0,5.38,2.41,5.38,5.38
		v245.98C675.34,354.21,672.93,356.62,669.96,356.62z"/>
	<path d="M1115,251.93c0,32.42-10.18,59.13-30.54,80.16s-46.87,31.54-79.52,31.54c-32.53,0-58.92-10.54-79.16-31.63
		c-20.24-21.08-30.36-47.77-30.36-80.07v-47.35c0-32.17,10.09-58.83,30.27-79.98s46.48-31.72,78.89-31.72
		c32.65,0,59.22,10.57,79.71,31.72c20.48,21.15,30.72,47.81,30.72,79.98L1115,251.93L1115,251.93z M1062.41,204.21
		c0-20.48-5.12-37.29-15.36-50.43c-10.24-13.13-24.4-19.7-42.47-19.7c-17.83,0-31.72,6.57-41.66,19.7
		c-9.94,13.14-14.91,29.94-14.91,50.43v47.71c0,20.85,5,37.84,15,50.97s23.98,19.7,41.93,19.7c18.07,0,32.17-6.57,42.29-19.7
		s15.18-30.12,15.18-50.97L1062.41,204.21L1062.41,204.21z"/>
	<path d="M364.12,305.61c-5.4-7.75-8.1-18.33-8.1-31.73V103.57c0-2.97-2.41-5.38-5.38-5.38H321.5h-11.73h-34.36
		c-2.3,0-4.35,1.47-5.09,3.65l-84.15,247.52c-1.19,3.49,1.41,7.11,5.09,7.11h38.58c2.3,0,4.35-1.47,5.09-3.65l16.3-47.94
		c0.74-2.18,2.79-3.65,5.09-3.65h52.79c2.33,0,4.33,1.56,5.02,3.79c3.48,11.19,9.03,20.86,16.69,29
		c12.46,13.25,28.09,20.59,46.86,22.08c3.13,0.25,5.82-2.24,5.82-5.38v-28.9c0-2.46-1.66-4.67-4.06-5.21
		C373.42,315.26,368.3,311.61,364.12,305.61z M309.78,165.22v92.99c0,2.97-2.41,5.38-5.38,5.38h-31.61c-3.68,0-6.28-3.62-5.09-7.11
		l31.61-92.99C301.26,157.73,309.78,159.14,309.78,165.22z"/>
	<path d="M313.52,84.68l-30.2-30.2c-0.78-0.78-0.78-2.05,0-2.83l30.2-30.2c0.78-0.78,2.05-0.78,2.83,0l30.2,30.2
		c0.78,0.78,0.78,2.05,0,2.83l-30.2,30.2C315.56,85.46,314.3,85.46,313.52,84.68z"/>
</g>
</svg>
