<?xml version="1.0" encoding="utf-8"?>
<!-- Generator: Adobe Illustrator 27.8.0, SVG Export Plug-In . SVG Version: 6.00 Build 0)  -->
<svg version="1.1" id="Capa_1" xmlns="http://www.w3.org/2000/svg" xmlns:xlink="http://www.w3.org/1999/xlink" x="0px" y="0px"
	 viewBox="0 0 200 200" style="enable-background:new 0 0 200 200;" xml:space="preserve">
<style type="text/css">
	.st0{fill:#E35B07;}
	.st1{fill:#1D1D1B;}
</style>
<g>
	<path class="st0" d="M359.8,154.99c-2.6-3.73-3.91-8.83-3.91-15.29V57.61c0-1.43-1.16-2.59-2.59-2.59h-14.04h-5.65h-16.56
		c-1.11,0-2.1,0.71-2.45,1.76l-40.56,119.3c-0.57,1.68,0.68,3.43,2.45,3.43h18.59c1.11,0,2.1-0.71,2.45-1.76l7.85-23.1
		c0.36-1.05,1.34-1.76,2.45-1.76h25.45c1.12,0,2.09,0.75,2.42,1.82c1.68,5.39,4.35,10.06,8.04,13.98
		c6.01,6.39,13.54,9.93,22.59,10.64c1.51,0.12,2.8-1.08,2.8-2.59V162.8c0-1.19-0.8-2.25-1.96-2.51
		C364.28,159.64,361.82,157.88,359.8,154.99z M333.61,87.32v44.82c0,1.43-1.16,2.59-2.59,2.59h-15.24c-1.78,0-3.03-1.75-2.45-3.43
		l15.24-44.82C329.5,83.71,333.61,84.39,333.61,87.32z"/>
	<path class="st0" d="M369.52,59.87l-10.78-10.78c-0.78-0.78-0.78-2.05,0-2.83l10.78-10.78c0.78-0.78,2.05-0.78,2.83,0l10.78,10.78
		c0.78,0.78,0.78,2.05,0,2.83l-10.78,10.78C371.57,60.65,370.3,60.65,369.52,59.87z"/>
	<path class="st0" d="M354.34,20.5h-107.3c-0.42,0-0.76,0.32-0.76,0.71v18.07c0,0.39,0.34,0.71,0.76,0.71h22.53
		c4.54,0,7.74,4.16,6.3,8.18l-28.61,85.65c-0.16,0.46,0.2,0.93,0.72,0.93h24.88c0.33,0,0.62-0.19,0.72-0.48l30.18-90.03
		c0.91-2.53,3.44-4.24,6.3-4.24h44.28c0.42,0,0.76-0.32,0.76-0.71V21.21C355.1,20.81,354.76,20.5,354.34,20.5z"/>
</g>
<g>
	<path class="st1" d="M144.8,154.99c-2.6-3.73-3.91-8.83-3.91-15.29V57.61c0-1.43-1.16-2.59-2.59-2.59h-14.04h-5.65h-16.56
		c-1.11,0-2.1,0.71-2.45,1.76l-40.56,119.3c-0.57,1.68,0.68,3.43,2.45,3.43h18.59c1.11,0,2.1-0.71,2.45-1.76l7.85-23.1
		c0.36-1.05,1.34-1.76,2.45-1.76h25.45c1.12,0,2.09,0.75,2.42,1.82c1.68,5.39,4.35,10.06,8.04,13.98
		c6.01,6.39,13.54,9.93,22.59,10.64c1.51,0.12,2.8-1.08,2.8-2.59V162.8c0-1.19-0.8-2.25-1.96-2.51
		C149.28,159.64,146.82,157.88,144.8,154.99z M118.61,87.32v44.82c0,1.43-1.16,2.59-2.59,2.59h-15.24c-1.78,0-3.03-1.75-2.45-3.43
		l15.24-44.82C114.5,83.71,118.61,84.39,118.61,87.32z"/>
	<path class="st1" d="M154.52,59.87l-10.78-10.78c-0.78-0.78-0.78-2.05,0-2.83l10.78-10.78c0.78-0.78,2.05-0.78,2.83,0l10.78,10.78
		c0.78,0.78,0.78,2.05,0,2.83l-10.78,10.78C156.57,60.65,155.3,60.65,154.52,59.87z"/>
	<path class="st1" d="M139.34,20.5H32.04c-0.42,0-0.76,0.32-0.76,0.71v18.07c0,0.39,0.34,0.71,0.76,0.71h22.53
		c4.54,0,7.74,4.16,6.3,8.18l-28.61,85.65c-0.16,0.46,0.2,0.93,0.72,0.93h24.88c0.33,0,0.62-0.19,0.72-0.48l30.18-90.03
		c0.91-2.53,3.44-4.24,6.3-4.24h44.28c0.42,0,0.76-0.32,0.76-0.71V21.21C140.1,20.81,139.76,20.5,139.34,20.5z"/>
</g>
</svg>
