<?xml version="1.0" encoding="utf-8"?>
<!-- Generator: Adobe Illustrator 27.8.0, SVG Export Plug-In . SVG Version: 6.00 Build 0)  -->
<svg version="1.1" id="Capa_1" xmlns="http://www.w3.org/2000/svg" xmlns:xlink="http://www.w3.org/1999/xlink" x="0px" y="0px"
	 viewBox="0 0 759.76 759.76" style="enable-background:new 0 0 759.76 759.76;" xml:space="preserve">
<g>
	<path d="M382.53,685.49C212.53,685.42,76.74,551.12,74.48,384.31C72.16,212.76,208.74,73.95,381.21,74.27
		c165.57,0.31,303.77,133.76,304.1,304.8C685.63,547.18,551.94,682.19,382.53,685.49z M399.17,326.32
		c0,41.17,0.13,82.34-0.05,123.51c-0.1,23.75-17.92,46.07-40.65,51.61c-24.46,5.96-51.92-5.75-62.84-27.3
		c-9.92-19.57-8.87-39.1,3.73-56.93c12.74-18.02,30.83-26.2,52.96-22.89c7.15,1.07,8.11-1.52,8.02-7.4
		c-0.22-14.25-0.06-28.5-0.07-42.75c-0.01-12.2-0.41-12.6-12.88-13.09c-76.19-2.98-135.59,69.08-118.26,143.48
		c11.58,49.74,49.56,83.75,101.67,91.05c60.08,8.41,120.32-35.27,129.56-95.12c4.07-26.33,2.93-53.15,2.8-79.78
		c-0.1-21.36-0.66-42.73-0.77-64.09c-0.05-8.9,1.41-9.6,8.8-4.9c16.91,10.76,35.28,17.64,54.92,21.55c5.33,1.06,7.31-0.08,7.27-5.55
		c-0.14-21.11-0.15-42.22-0.07-63.34c0.02-4.57-1.65-6.56-6.38-6.96c-9.49-0.79-18.85-2.72-27.51-6.81
		c-25.94-12.24-43.83-31.71-51.73-59.52c-1.78-6.26-4.64-8.52-11.06-8.17c-9.21,0.5-18.49,0.54-27.7,0
		c-7.63-0.45-9.98,2.29-9.93,9.9C399.34,243.98,399.18,285.15,399.17,326.32z"/>
</g>
</svg>
